<svg width="24" height="24" viewBox="0 0 24 24" fill="none" xmlns="http://www.w3.org/2000/svg">
  <path d="M23.9998 12.2743C23.9998 11.4585 23.9323 10.6384 23.7883 9.83594H12.2415V14.4568H18.8538C18.5794 15.9472 17.6978 17.2656 16.4068 18.1032V21.1015H20.3517C22.6683 19.0115 23.9998 15.9251 23.9998 12.2743Z" fill="#4285F4" />
  <path d="M12.2421 24.0001C15.5438 24.0001 18.3282 22.9375 20.3568 21.1032L16.4119 18.1049C15.3144 18.8369 13.8974 19.2514 12.2466 19.2514C9.05288 19.2514 6.34497 17.1393 5.37336 14.2998H1.30249V17.3906C3.38066 21.4429 7.61347 24.0001 12.2421 24.0001Z" fill="#34A853" />
  <path d="M5.36859 14.2981C4.8558 12.8078 4.8558 11.194 5.36859 9.70368V6.61279H1.30223C-0.434076 10.0035 -0.434076 13.9983 1.30223 17.3889L5.36859 14.2981Z" fill="#FBBC04" />
  <path d="M12.2421 4.74956C13.9874 4.72311 15.6742 5.36685 16.9382 6.54854L20.4333 3.12254C18.2202 1.08548 15.2829 -0.0344652 12.2421 0.000808646C7.61345 0.000808646 3.38066 2.55817 1.30249 6.61467L5.36886 9.70556C6.33596 6.86158 9.04838 4.74956 12.2421 4.74956Z" fill="#EA4335" />
</svg>