<svg xmlns="http://www.w3.org/2000/svg" width="24" height="22" viewBox="0 0 24 22" fill="none">
    <path d="M0.00292969 3.5C0.00292969 2.70435 0.319 1.94129 0.881609 1.37868C1.44422 0.816071 2.20728 0.5 3.00293 0.5H21.0029C21.7986 0.5 22.5616 0.816071 23.1243 1.37868C23.6869 1.94129 24.0029 2.70435 24.0029 3.5V18.5C24.0029 19.2956 23.6869 20.0587 23.1243 20.6213C22.5616 21.1839 21.7986 21.5 21.0029 21.5H3.00293C2.20728 21.5 1.44422 21.1839 0.881609 20.6213C0.319 20.0587 0.00292969 19.2956 0.00292969 18.5V3.5ZM1.50293 17V18.5C1.50293 18.8978 1.66097 19.2794 1.94227 19.5607C2.22357 19.842 2.6051 20 3.00293 20H21.0029C21.4008 20 21.7823 19.842 22.0636 19.5607C22.3449 19.2794 22.5029 18.8978 22.5029 18.5V13.25L16.8374 10.3295C16.6968 10.259 16.5375 10.2346 16.3822 10.2596C16.2269 10.2847 16.0833 10.3579 15.9719 10.469L10.4069 16.034L6.41693 13.376C6.27287 13.2801 6.10007 13.237 5.92784 13.2539C5.7556 13.2709 5.59453 13.3468 5.47193 13.469L1.50293 17ZM9.00293 7.25C9.00293 6.65326 8.76588 6.08097 8.34392 5.65901C7.92196 5.23705 7.34967 5 6.75293 5C6.15619 5 5.5839 5.23705 5.16194 5.65901C4.73998 6.08097 4.50293 6.65326 4.50293 7.25C4.50293 7.84674 4.73998 8.41903 5.16194 8.84099C5.5839 9.26295 6.15619 9.5 6.75293 9.5C7.34967 9.5 7.92196 9.26295 8.34392 8.84099C8.76588 8.41903 9.00293 7.84674 9.00293 7.25Z" fill="white"/>
  </svg>